<?xml version="1.0" encoding="iso-8859-1"?>
<svg height="800px" width="800px" version="1.1" id="Layer_1" xmlns="http://www.w3.org/2000/svg" xmlns:xlink="http://www.w3.org/1999/xlink" 
	 viewBox="0 0 512 512" xml:space="preserve">
<path style="fill:#F66131;" d="M500.429,21.695C500.429,9.714,490.716,0,478.734,0H33.266C21.284,0,11.571,9.714,11.571,21.695
	v468.61c0,11.981,9.714,21.695,21.695,21.695h445.469c11.981,0,21.695-9.714,21.695-21.695V21.695z"/>
<path style="fill:#F68B4D;" d="M256,0H33.266C21.284,0,11.571,9.714,11.571,21.695v468.61c0,11.981,9.714,21.695,21.695,21.695H256
	V0z"/>
<path style="fill:#C6C6C6;" d="M478.734,0H33.266C21.284,0,11.571,9.714,11.571,21.695v133.062h488.859V21.695
	C500.429,9.714,490.716,0,478.734,0z"/>
<path style="fill:#E2E2E2;" d="M256,0H33.266C21.284,0,11.571,9.714,11.571,21.695v133.062H256V0z"/>
<path style="fill:#C6C6C6;" d="M500.429,351.458H354.35c-7.988,0-14.463,6.475-14.463,14.463V512h12.023l148.519-148.519V351.458z"
	/>
</svg>